<?xml version="1.0" encoding="utf-8"?>
<!DOCTYPE svg PUBLIC "-//W3C//DTD SVG 1.1//EN" "http://www.w3.org/Graphics/SVG/1.1/DTD/svg11.dtd">
<svg version="1.1" xmlns="http://www.w3.org/2000/svg" xmlns:xlink="http://www.w3.org/1999/xlink" x="0px" y="0px" viewBox="0 0 1000 1000" enable-background="new 0 0 1000 1000" xml:space="preserve">
<g><g><g><g><g><path d="M761.3,467.3H238.7c-18,0-32.7,14.6-32.7,32.7c0,18,14.6,32.7,32.7,32.7h522.7c18,0,32.7-14.7,32.7-32.7C794,482,779.3,467.3,761.3,467.3z" style="fill: white;"/><path d="M761.3,271.3H238.7c-18,0-32.7,14.6-32.7,32.7c0,18,14.6,32.7,32.7,32.7h522.7c18,0,32.7-14.6,32.7-32.7C794,286,779.3,271.3,761.3,271.3z" style="fill: white;"/><path d="M761.3,663.3H238.7c-18,0-32.7,14.7-32.7,32.7s14.6,32.7,32.7,32.7h522.7c18,0,32.7-14.7,32.7-32.7C794,678,779.3,663.3,761.3,663.3z" style="fill: white;"/></g></g></g></g><g></g><g></g><g></g><g></g><g></g><g></g><g></g><g></g><g></g><g></g><g></g><g></g><g></g><g></g><g></g></g>
</svg>